<svg width="43" height="41" viewBox="0 0 43 41" fill="none" xmlns="http://www.w3.org/2000/svg">
<path id="Vector" d="M14.9545 41L11.2273 34.6504L3.81818 33.1084L4.68182 25.9425L0 20.5L4.68182 15.1029L3.81818 7.89159L11.2273 6.39491L14.9545 0L21.5 2.99336L28.0909 0L31.8182 6.39491L39.1818 7.89159L38.3182 15.1029L43 20.5L38.3182 25.9425L39.1818 33.1084L31.8182 34.6504L28.0909 41L21.5 38.0066L14.9545 41ZM16.8182 35.4668L21.5 33.4259L26.3182 35.4668L29.2727 31.0675L34.4091 29.7522L33.9091 24.4911L37.4091 20.5L33.9091 16.4181L34.4091 11.1571L29.2727 9.93252L26.2273 5.53319L21.5 7.52876L16.6818 5.53319L13.7273 9.93252L8.63636 11.1571L9.09091 16.4181L5.59091 20.5L9.09091 24.4911L8.63636 29.8429L13.7273 31.0675L16.8182 35.4668ZM19.5455 26.8949L30.2273 16.3274L27.7727 14.1051L19.5455 22.2688L15.2727 17.7334L12.7727 20.1825L19.5455 26.8949Z" fill="#B9CC2A"/>
</svg>
