<svg width="43" height="38" viewBox="0 0 43 38" fill="none" xmlns="http://www.w3.org/2000/svg">
<path id="Vector" d="M20.4647 38L17.383 35.1139C13.7876 31.8751 10.8664 29.1253 8.61926 26.8646C6.37215 24.6038 4.60657 22.6076 3.32251 20.8759C2.03845 19.1443 1.16368 17.5674 0.698208 16.1454C0.232736 14.7233 0 13.2202 0 11.6361C0 8.37967 1.08599 5.62621 3.25798 3.37575C5.42988 1.12525 8.11581 0 11.3158 0C13.1227 0 14.7943 0.376793 16.3306 1.13038C17.8668 1.88397 19.2449 3.01435 20.4647 4.52152C21.8772 2.95021 23.3223 1.8038 24.8001 1.08228C26.2778 0.360759 27.8824 0 29.6137 0C32.425 0 34.8533 0.962025 36.8985 2.88608C38.9438 4.81013 40.1911 7.18312 40.6405 10.0051H35.9698C35.713 8.52996 35.0468 7.25527 33.9714 6.18101C32.896 5.10675 31.4434 4.56962 29.6137 4.56962C28.1691 4.56962 26.7325 5.05063 25.304 6.01266C23.8755 6.97468 22.9365 8.32152 22.4871 10.0532H18.4905C18.009 8.35359 17.0745 7.01477 15.6872 6.03671C14.2999 5.05865 12.8478 4.56962 11.3308 4.56962C9.29838 4.56962 7.66424 5.24493 6.42833 6.59555C5.19242 7.94614 4.57447 9.62163 4.57447 11.622C4.57447 12.9171 4.81637 14.1558 5.30017 15.3384C5.78401 16.521 6.62437 17.8644 7.82128 19.3686C9.01819 20.8728 10.647 22.6206 12.7077 24.6119C14.7684 26.6033 17.3541 29.0778 20.4647 32.0354C21.2994 31.2338 21.9655 30.6084 22.463 30.1595C22.9606 29.7105 23.5946 29.1654 24.3651 28.524L24.861 29.0195L25.9355 30.0929C26.3213 30.4782 26.6857 30.8342 27.0287 31.1608L27.5431 31.6506C26.7727 32.3561 26.1083 32.9554 25.5499 33.4486C24.9916 33.9417 24.2435 34.6251 23.3057 35.4987L20.4647 38ZM32.2139 29.5342V23.281H25.9541V18.7595H32.2139V12.5063H36.7402V18.7595H43V23.281H36.7402V29.5342H32.2139Z" fill="#B9CC2A"/>
</svg>
