<svg width="32" height="43" viewBox="0 0 32 43" fill="none" xmlns="http://www.w3.org/2000/svg">
<path id="Vector" d="M15.9746 43C14.9942 43 14.0814 42.7895 13.2361 42.3684C12.3909 41.9473 11.8331 41.3157 11.5626 40.4736H10.8526C9.80454 40.3051 8.93397 39.8127 8.24089 38.9962C7.54781 38.1798 7.20127 37.2574 7.20127 36.2291V29.6604C4.93608 28.0652 3.16957 26.098 1.90174 23.7587C0.633914 21.4195 0 18.8223 0 15.9671C0 11.5656 1.5552 7.80409 4.66561 4.68245C7.77602 1.56082 11.5417 0 15.9626 0C20.3834 0 24.1616 1.56082 27.297 4.68245C30.4323 7.80409 32 11.5656 32 15.9671C32 18.8304 31.3576 21.4326 30.0729 23.7738C28.7882 26.115 27.0301 28.0772 24.7987 29.6604V36.2291C24.7987 37.2574 24.4437 38.1798 23.7338 38.9962C23.0238 39.8127 22.1616 40.3051 21.1474 40.4736H20.4374C20.1331 41.3157 19.5499 41.9473 18.6878 42.3684C17.8257 42.7895 16.9213 43 15.9746 43ZM11.9683 36.2291H19.981V34.0059H11.9683V36.2291ZM11.9683 31.9847H19.981V29.9636H11.9683V31.9847ZM11.0555 26.4771H14.504V20.1105L9.73693 15.3608L11.7147 13.3901L15.9746 17.6345L20.2345 13.3901L22.2124 15.3608L17.4453 20.1105V26.4771H20.8938C22.8209 25.5339 24.3508 24.1056 25.4834 22.1921C26.616 20.2788 27.1823 18.2104 27.1823 15.9872C27.1823 12.841 26.1034 10.19 23.9458 8.03408C21.7881 5.87818 19.1342 4.80024 15.9838 4.80024C12.8335 4.80024 10.1764 5.8764 8.01268 8.02872C5.84892 10.181 4.76704 12.8285 4.76704 15.971C4.76704 18.1917 5.33333 20.262 6.46593 22.1821C7.59852 24.1022 9.12837 25.5339 11.0555 26.4771Z" fill="#B9CC2A"/>
</svg>
