<svg width="19" height="19" viewBox="0 0 19 19" fill="none" xmlns="http://www.w3.org/2000/svg">
<path id="Vector" d="M9.48884 0L17.906 5C18.3228 5.23704 18.6093 5.52963 18.7656 5.87778C18.9219 6.22593 19 6.6 19 7V16.9111C19 17.4896 18.7933 17.9824 18.38 18.3894C17.9667 18.7965 17.4664 19 16.879 19H2.09871C1.51747 19 1.02238 18.7965 0.613425 18.3894C0.204475 17.9824 0 17.4896 0 16.9111V7C0 6.6 0.0744222 6.22593 0.223267 5.87778C0.372111 5.52963 0.654916 5.23704 1.07168 5L9.48884 0ZM9.48884 10.8222L16.6334 6.64444L9.48884 2.35556L2.3443 6.64444L9.48884 10.8222ZM9.48884 12.5778L2.09871 8.26667V16.9111H16.879V8.26667L9.48884 12.5778ZM9.48884 16.9111H16.879H2.09871H9.48884Z" fill="#B9CC2A"/>
</svg>
