<svg width="71" height="71" viewBox="0 0 71 71" fill="none" xmlns="http://www.w3.org/2000/svg">
<path id="Vector" d="M35.4583 0L66.9119 18.6842C68.4693 19.57 69.54 20.6634 70.124 21.9643C70.708 23.2653 71 24.6632 71 26.1579V63.1942C71 65.356 70.2277 67.1974 68.6832 68.7185C67.1387 70.2395 65.269 71 63.074 71H7.84254C5.67054 71 3.82046 70.2395 2.29227 68.7185C0.764091 67.1974 0 65.356 0 63.1942V26.1579C0 24.6632 0.278104 23.2653 0.834313 21.9643C1.39052 20.6634 2.44732 19.57 4.0047 18.6842L35.4583 0ZM35.4583 40.4409L62.1563 24.8292L35.4583 8.80234L8.76028 24.8292L35.4583 40.4409ZM35.4583 47.0012L7.84254 30.8912V63.1942H63.074V30.8912L35.4583 47.0012ZM35.4583 63.1942H63.074H7.84254H35.4583Z" fill="#B9CC2A"/>
</svg>
