<svg width="40" height="52" viewBox="0 0 40 52" fill="none" xmlns="http://www.w3.org/2000/svg">
<path id="Vector" d="M19.9952 9.06821C18.7308 9.06821 17.6479 8.62232 16.7463 7.73056C15.8448 6.83876 15.394 5.77054 15.394 4.5259C15.394 3.28129 15.8442 2.21581 16.7446 1.32947C17.645 0.443156 18.7273 0 19.9917 0C21.256 0 22.339 0.443156 23.2405 1.32947C24.1421 2.21581 24.5928 3.28129 24.5928 4.5259C24.5928 5.77054 24.1427 6.83876 23.2423 7.73056C22.3419 8.62232 21.2595 9.06821 19.9952 9.06821ZM13.1535 41.3998V15.905C10.9613 15.7245 8.7433 15.4579 6.49962 15.1055C4.25593 14.753 2.08939 14.2973 0 13.7383L1.20578 9.04231C4.10221 9.81791 7.17108 10.3772 10.4124 10.7203C13.6537 11.0633 16.8474 11.2349 19.9934 11.2349C23.1395 11.2349 26.3353 11.0633 29.581 10.7203C32.8267 10.3772 35.9022 9.81791 38.8074 9.04231L40 13.7383C37.9106 14.2973 35.7419 14.753 33.4938 15.1055C31.2457 15.4579 29.0256 15.7227 26.8333 15.8998V41.3998H22.0365V28.6589H17.9503V41.3998H13.1535ZM10.992 52C10.3332 52 9.7732 51.7751 9.31186 51.3252C8.85053 50.8754 8.61986 50.3263 8.61986 49.6779C8.61986 49.0295 8.85053 48.4782 9.31186 48.0241C9.7732 47.5699 10.3332 47.3429 10.992 47.3429C11.6507 47.3429 12.2085 47.5699 12.6655 48.0241C13.1224 48.4782 13.3509 49.0295 13.3509 49.6779C13.3509 50.3263 13.1224 50.8754 12.6655 51.3252C12.2085 51.7751 11.6507 52 10.992 52ZM19.9934 52C19.3347 52 18.779 51.7751 18.3265 51.3252C17.8739 50.8754 17.6477 50.3263 17.6477 49.6779C17.6477 49.0295 17.8739 48.4782 18.3265 48.0241C18.779 47.5699 19.3347 47.3429 19.9934 47.3429C20.6522 47.3429 21.21 47.5699 21.6669 48.0241C22.1239 48.4782 22.3524 49.0295 22.3524 49.6779C22.3524 50.3263 22.1239 50.8754 21.6669 51.3252C21.21 51.7751 20.6522 52 19.9934 52ZM29.0212 52C28.3625 52 27.8047 51.7751 27.3477 51.3252C26.8908 50.8754 26.6623 50.3263 26.6623 49.6779C26.6623 49.0295 26.8908 48.4782 27.3477 48.0241C27.8047 47.5699 28.3625 47.3429 29.0212 47.3429C29.6799 47.3429 30.2378 47.5699 30.6947 48.0241C31.1517 48.4782 31.3801 49.0295 31.3801 49.6779C31.3801 50.3263 31.1517 50.8754 30.6947 51.3252C30.2378 51.7751 29.6799 52 29.0212 52Z" fill="#B9CC2A"/>
</svg>
