<svg width="19" height="19" viewBox="0 0 19 19" fill="none" xmlns="http://www.w3.org/2000/svg">
<path id="Vector" d="M17.2257 8.81369C17.1435 6.8872 16.4125 5.24567 15.0324 3.8891C13.6524 2.53253 11.9684 1.81411 9.98055 1.73384V0C11.2067 0.0321082 12.3594 0.28496 13.4384 0.758555C14.5175 1.23215 15.4596 1.86629 16.2646 2.66096C17.0696 3.45564 17.7144 4.38056 18.1991 5.43573C18.6837 6.49089 18.9425 7.61687 18.9754 8.81369H17.2257ZM12.7652 8.81369C12.6831 8.09126 12.3833 7.47719 11.8658 6.97148C11.3482 6.46578 10.7198 6.17279 9.98055 6.09252V4.38276C11.2127 4.46303 12.2601 4.92459 13.1226 5.76743C13.9851 6.61027 14.4574 7.62569 14.5396 8.81369H12.7652ZM17.2996 19C15.2937 19 13.2643 18.5344 11.2115 17.6033C9.1587 16.6722 7.25746 15.3517 5.50778 13.642C3.75811 11.9322 2.40272 10.0702 1.44163 8.05612C0.480545 6.04198 0 4.06298 0 2.11914C0 1.64668 0.164289 1.24763 0.492866 0.92197C0.821444 0.596297 1.22395 0.43346 1.70039 0.43346H5.15045C5.65975 0.43346 6.07458 0.565906 6.39494 0.830799C6.71531 1.09569 6.93299 1.47698 7.04799 1.97465L7.71161 4.61493C7.77849 5.0381 7.76675 5.41022 7.67639 5.73131C7.58604 6.05239 7.40754 6.32712 7.14092 6.55551L4.58366 8.83777C4.94509 9.41572 5.33117 9.96155 5.74189 10.4753C6.15262 10.989 6.62084 11.4867 7.14656 11.9683C7.68872 12.5302 8.23498 13.0199 8.78534 13.4373C9.33571 13.8547 9.8984 14.2079 10.4734 14.4968L12.9377 12.0646C13.217 11.7757 13.5304 11.583 13.8779 11.4867C14.2254 11.3904 14.5938 11.3904 14.9831 11.4867L17.4228 12.0406C17.9321 12.185 18.3223 12.4182 18.5934 12.74C18.8645 13.0618 19 13.4628 19 13.943V17.3384C19 17.8131 18.8328 18.2088 18.4983 18.5253C18.1639 18.8418 17.7643 19 17.2996 19ZM3.42542 6.83904L5.39689 5.03295L4.85473 2.72117H2.36576C2.38219 3.29911 2.46809 3.92073 2.62345 4.58603C2.77882 5.25133 3.04614 6.00233 3.42542 6.83904ZM12.5927 15.6768C13.1842 15.9497 13.8372 16.1745 14.5519 16.3511C15.2665 16.5277 15.9689 16.6401 16.6589 16.6882V14.2121L14.4903 13.7503L12.5927 15.6768Z" fill="#B9CC2A"/>
</svg>
