<svg width="63" height="71" viewBox="0 0 63 71" fill="none" xmlns="http://www.w3.org/2000/svg">
<path id="Vector" d="M11.1587 71C8.05902 71 5.42435 69.8974 3.25464 67.6921C1.08488 65.4868 0 62.8089 0 59.6585V48.5862H10.5271V0L15.8213 5.31881L21.0584 0L26.2955 5.31881L31.5326 0L36.7697 5.31881L42.0068 0L47.2398 5.31881L52.4729 0L57.7058 5.31881L63 0V59.6585C63 62.8089 61.9151 65.4868 59.7454 67.6921C57.5757 69.8974 54.941 71 51.8413 71H11.1587ZM51.8413 63.1216C52.8067 63.1216 53.6159 62.7897 54.269 62.1259C54.922 61.4622 55.2485 60.6397 55.2485 59.6585V11.445H18.2786V48.5862H48.4341V59.6585C48.4341 60.6397 48.7607 61.4622 49.4137 62.1259C50.0667 62.7897 50.876 63.1216 51.8413 63.1216ZM21.6858 25.4628V18.5367H41.6197V25.4628H21.6858ZM21.6858 35.852V28.9259H41.6197V35.852H21.6858ZM48.4341 25.4628C47.4688 25.4628 46.6595 25.131 46.0065 24.4672C45.3535 23.8035 45.0269 22.981 45.0269 21.9998C45.0269 21.0186 45.3535 20.1961 46.0065 19.5324C46.6595 18.8686 47.4688 18.5367 48.4341 18.5367C49.3995 18.5367 50.2087 18.8686 50.8618 19.5324C51.5148 20.1961 51.8413 21.0186 51.8413 21.9998C51.8413 22.981 51.5148 23.8035 50.8618 24.4672C50.2087 25.131 49.3995 25.4628 48.4341 25.4628ZM48.4341 35.852C47.4688 35.852 46.6595 35.5201 46.0065 34.8564C45.3535 34.1926 45.0269 33.3701 45.0269 32.3889C45.0269 31.4077 45.3535 30.5853 46.0065 29.9215C46.6595 29.2578 47.4688 28.9259 48.4341 28.9259C49.3995 28.9259 50.2087 29.2578 50.8618 29.9215C51.5148 30.5853 51.8413 31.4077 51.8413 32.3889C51.8413 33.3701 51.5148 34.1926 50.8618 34.8564C50.2087 35.5201 49.3995 35.852 48.4341 35.852Z" fill="#B9CC2A"/>
</svg>
