<svg width="71" height="71" viewBox="0 0 71 71" fill="none" xmlns="http://www.w3.org/2000/svg">
<path id="Vector" d="M64.3697 32.9354C64.0627 25.7364 61.3307 19.6022 56.1738 14.533C51.0169 9.46367 44.7242 6.77905 37.2957 6.47909V0C41.8778 0.119983 46.185 1.06485 50.2174 2.8346C54.2497 4.60435 57.77 6.97402 60.7782 9.9436C63.7864 12.9132 66.1961 16.3695 68.0071 20.3125C69.8182 24.2554 70.7851 28.4631 70.9079 32.9354H64.3697ZM47.7017 32.9354C47.3947 30.2357 46.2743 27.9411 44.3405 26.0513C42.4066 24.1616 40.0584 23.0668 37.2957 22.7668V16.3777C41.9001 16.6777 45.8139 18.4024 49.037 21.552C52.2601 24.7015 54.0251 28.496 54.332 32.9354H47.7017ZM64.6459 71C57.1501 71 49.5666 69.2602 41.8956 65.7807C34.2246 62.3012 27.12 57.3669 20.5817 50.9778C14.0435 44.5887 8.9786 37.6309 5.38716 30.1045C1.79572 22.5779 0 15.1827 0 7.91888C0 6.15339 0.613921 4.66218 1.84176 3.44526C3.06961 2.22827 4.57371 1.61977 6.35409 1.61977H19.2464C21.1496 1.61977 22.6997 2.1147 23.8969 3.10456C25.094 4.09442 25.9075 5.51922 26.3372 7.37896L28.8171 17.2453C29.067 18.8266 29.0231 20.2172 28.6855 21.417C28.3478 22.6168 27.6808 23.6435 26.6845 24.4969L17.1284 33.0253C18.479 35.185 19.9217 37.2248 21.4566 39.1445C22.9914 41.0642 24.741 42.924 26.7056 44.7237C28.7315 46.8234 30.7728 48.6531 32.8294 50.2129C34.8861 51.7727 36.9888 53.0925 39.1375 54.1724L48.3463 45.0837C49.39 44.0038 50.5611 43.2839 51.8596 42.924C53.1581 42.564 54.5348 42.564 55.9896 42.924L65.1064 44.9937C67.0095 45.5336 68.4676 46.4048 69.4806 47.6073C70.4935 48.8097 71 50.3082 71 52.1027V64.7909C71 66.5649 70.3751 68.0433 69.1254 69.226C67.8756 70.4087 66.3825 71 64.6459 71ZM12.8003 25.5564L20.1673 18.8074L18.1414 10.1686H8.84047C8.90186 12.3283 9.22285 14.6512 9.80343 17.1373C10.384 19.6234 11.383 22.4298 12.8003 25.5564ZM47.0571 58.5817C49.2672 59.6016 51.7075 60.4415 54.3781 61.1014C57.0486 61.7613 59.6732 62.1812 62.2516 62.3612V53.1085L54.1479 51.3828L47.0571 58.5817Z" fill="#B9CC2A"/>
</svg>
