<svg width="43" height="43" viewBox="0 0 43 43" fill="none" xmlns="http://www.w3.org/2000/svg">
<path id="Vector" d="M11.75 34.15H15.9V29.95H20.1V25.8H15.9V21.6H11.75V25.8H7.55V29.95H11.75V34.15ZM22.8 26.45H34.95V22.95H22.8V26.45ZM22.8 33.2H30.95V29.7H22.8V33.2ZM4.7 42.55C3.39833 42.55 2.28958 42.0921 1.37375 41.1763C0.457917 40.2604 0 39.1517 0 37.85V14.75C0 13.4346 0.457917 12.314 1.37375 11.3884C2.28958 10.4628 3.39833 10 4.7 10H15.5V3.9C15.5 2.76667 15.8564 1.83333 16.5692 1.1C17.282 0.366667 18.2408 0 19.4456 0H23.1294C24.2765 0 25.2167 0.366667 25.95 1.1C26.6833 1.83333 27.05 2.76667 27.05 3.9V10H37.8C39.1154 10 40.236 10.4628 41.1616 11.3884C42.0872 12.314 42.55 13.4346 42.55 14.75V37.85C42.55 39.1517 42.0872 40.2604 41.1616 41.1763C40.236 42.0921 39.1154 42.55 37.8 42.55H4.7ZM4.7 37.85H37.8V14.75H26.95V16.25C26.8167 17.25 26.3583 18 25.575 18.5C24.7917 19 23.9765 19.25 23.1294 19.25H19.4206C18.5402 19.25 17.7 18.9917 16.9 18.475C16.1 17.9583 15.65 17.2167 15.55 16.25V14.75H4.7V37.85ZM19.85 14.9H22.7V4.35H19.85V14.9Z" fill="#B9CC2A"/>
</svg>
