<svg width="43" height="38" viewBox="0 0 43 38" fill="none" xmlns="http://www.w3.org/2000/svg">
<path id="Vector" d="M17.2398 17.5C14.6664 17.5 12.5664 16.6867 10.9398 15.0602C9.31327 13.4336 8.5 11.3336 8.5 8.7602C8.5 6.18673 9.31327 4.08333 10.9398 2.45C12.5664 0.816667 14.6664 0 17.2398 0C19.8133 0 21.925 0.816667 23.575 2.45C25.225 4.08333 26.05 6.18673 26.05 8.7602C26.05 11.3336 25.225 13.4336 23.575 15.0602C21.925 16.6867 19.8133 17.5 17.2398 17.5ZM0 36.1V30.05C0 28.5167 0.408333 27.2 1.225 26.1C2.04167 25 3 24.1833 4.1 23.65C6.5 22.5833 8.81667 21.8 11.05 21.3C13.2833 20.8 15.35 20.55 17.25 20.55H19.2C18.9333 21.05 18.65 21.7667 18.35 22.7C18.05 23.6333 17.8667 24.5 17.8 25.3H17.366C15.622 25.3 13.8361 25.4745 12.0083 25.8234C10.1805 26.1723 8.27967 26.8248 6.3059 27.781C5.7708 28.0447 5.36938 28.3972 5.10165 28.8383C4.83388 29.2794 4.7 29.75 4.7 30.25V31.4H17.65C17.8167 32.2667 18.15 33.1333 18.65 34C19.15 34.8667 19.65 35.5667 20.15 36.1H0ZM31.1543 37.65L30.65 34.2C30.15 34.0667 29.6417 33.8583 29.125 33.575C28.6083 33.2917 28.1833 32.9667 27.85 32.6L24.9 33.3L23.2 30.35L25.7 28.05C25.6 27.85 25.5583 27.5083 25.575 27.025C25.5917 26.5417 25.6333 26.2167 25.7 26.05L23.2 23.7L24.9 20.8L27.85 21.45C28.1833 21.1167 28.6083 20.8 29.125 20.5C29.6417 20.2 30.15 20 30.65 19.9L31.1543 16.4H34.8L35.35 19.9C35.8167 20 36.3167 20.2 36.85 20.5C37.3833 20.8 37.8167 21.1167 38.15 21.45L41.05 20.8L42.8 23.7L40.25 26.05C40.3833 26.2377 40.4417 26.568 40.425 27.0408C40.4083 27.5136 40.35 27.85 40.25 28.05L42.8 30.35L41.05 33.3L38.15 32.6C37.8167 32.9667 37.3833 33.2917 36.85 33.575C36.3167 33.8583 35.8167 34.0667 35.35 34.2L34.8 37.65H31.1543ZM33 30.75C34.0942 30.75 34.9844 30.4083 35.6706 29.725C36.3569 29.0417 36.7 28.1417 36.7 27.025C36.7 25.9083 36.3563 25.0083 35.6688 24.325C34.9813 23.6417 34.0897 23.3 32.9938 23.3C31.8979 23.3 31 23.6431 30.3 24.3294C29.6 25.0156 29.25 25.9058 29.25 27C29.25 28.1333 29.6015 29.0417 30.3044 29.725C31.0073 30.4083 31.9058 30.75 33 30.75ZM17.2398 12.8C18.4133 12.8 19.3833 12.4192 20.15 11.6577C20.9167 10.8962 21.3 9.92752 21.3 8.75175C21.3 7.56225 20.9201 6.58958 20.1602 5.83375C19.4003 5.07792 18.4336 4.7 17.2602 4.7C16.0867 4.7 15.1167 5.07868 14.35 5.83605C13.5833 6.59342 13.2 7.55707 13.2 8.727C13.2 9.91067 13.5799 10.8854 14.3398 11.6513C15.0997 12.4171 16.0664 12.8 17.2398 12.8Z" fill="#B9CC2A"/>
</svg>
